<?xml version="1.0" encoding="iso-8859-1"?>
<!-- Generator: Adobe Illustrator 26.0.1, SVG Export Plug-In . SVG Version: 6.00 Build 0)  -->
<svg version="1.1" id="Calque_1" xmlns="http://www.w3.org/2000/svg" xmlns:xlink="http://www.w3.org/1999/xlink" x="0px" y="0px"
	 viewBox="0 0 357.12 427.908" style="enable-background:new 0 0 357.12 427.908;" xml:space="preserve">
<g>
	<path d="M224.424,133.941c1.665-1.279,3.088-2.366,4.505-3.461c5.835-4.51,11.768-8.883,18.159-12.587
		c7.004-4.059,14.342-7.282,22.311-8.974c12.388-2.631,24.313-1.211,35.781,4.051c2.896,1.329,5.698,2.892,8.439,4.524
		c2.217,1.32,3.005,3.684,2.301,5.942c-0.966,3.096-4.206,4.624-7.164,3.336c-0.76-0.331-1.457-0.809-2.175-1.232
		c-5.922-3.49-12.227-5.941-19.049-6.95c-7.295-1.08-14.409-0.155-21.374,2.1c-6.592,2.135-12.619,5.422-18.391,9.206
		c-0.206,0.135-0.38,0.32-0.443,0.793c1.077-0.103,2.152-0.259,3.231-0.3c18.034-0.673,34.189,4.274,47.907,16.259
		c2.767,2.418,5.234,5.185,7.784,7.844c0.611,0.638,1.145,1.431,1.466,2.25c0.867,2.213,0,4.769-1.933,6.097
		c-1.996,1.371-4.764,1.22-6.546-0.449c-0.911-0.853-1.689-1.847-2.534-2.77c-7.709-8.414-16.958-14.278-28.105-17.018
		c-7.311-1.797-14.716-2.099-22.146-1.153c-3.911,0.498-7.767,1.424-11.646,2.165c-0.171,0.033-0.326,0.143-0.696,0.311
		c0.568,0.312,0.957,0.566,1.377,0.751c17.481,7.691,33.041,18.299,47.102,31.15c18.584,16.984,33.546,36.722,44.693,59.314
		c7.584,15.372,12.879,31.496,15.524,48.452c1.386,8.887,1.949,17.839,1.707,26.833c-0.268,9.954-0.991,19.866-2.874,29.665
		c-2.207,11.488-5.832,22.453-11.97,32.493c-7.768,12.707-18.65,21.96-31.799,28.703c-9.697,4.973-19.975,8.313-30.548,10.79
		c-9.199,2.154-18.499,3.77-27.906,4.653c-8.645,0.811-17.3,1.544-25.963,2.109c-19.595,1.278-39.218,0.983-58.832,0.659
		c-7.99-0.132-15.984-0.61-23.956-1.21c-15.797-1.189-31.502-3.09-46.896-7.015c-9.986-2.546-19.651-5.94-28.787-10.779
		c-19.063-10.098-31.843-25.445-38.54-45.913c-2.844-8.692-4.555-17.616-5.479-26.704c-1.072-10.54-1.538-21.096-0.769-31.677
		c0.733-10.085,2.514-19.996,5.22-29.736c7.964-28.656,21.877-54.164,40.891-76.938c10.084-12.079,21.463-22.772,34.576-31.54
		c7.943-5.311,16.331-9.753,25.421-12.795c2.177-0.728,2.397-1.09,2.443-3.475c0.424-21.797-6.57-41.123-19.64-58.347
		c-3.188-4.202-6.813-8.079-10.334-12.02c-2.603-2.913-5.119-5.875-7.032-9.298c-1.364-2.442-2.425-4.996-2.747-7.814
		c-0.651-5.692,1.531-10.049,6.243-13.171c3.304-2.19,7.054-3.208,10.906-3.886c4.052-0.712,8.141-0.882,12.251-0.917
		c4.728-0.041,9.465-0.095,14.178-0.422c2.748-0.191,5.503-0.754,8.174-1.458c4.695-1.238,8.278-4.084,10.96-8.141
		c1.839-2.782,3.749-5.525,5.762-8.184c2.021-2.671,4.385-5.039,7.125-6.995c6.112-4.364,12.604-5.076,19.494-2.013
		c4.65,2.067,8.553,5.193,12.142,8.707c2.732,2.674,5.463,5.391,7.847,8.367c3.755,4.689,8.644,5.968,14.165,4.972
		c5.314-0.959,10.543-2.401,15.79-3.708c4.185-1.043,8.381-2.008,12.713-2.064c1.798-0.024,3.642,0.001,5.39,0.365
		c7.902,1.643,10.584,7.655,9.54,14.2c-0.455,2.853-1.339,5.691-2.416,8.38c-2.121,5.299-4.888,10.285-7.959,15.105
		c-8.634,13.552-14.202,28.262-16.6,44.168c-1.146,7.605-1.4,15.231-0.751,22.891c0.041,0.485,0.088,0.971,0.154,1.453
		C224.167,132.434,224.267,132.979,224.424,133.941z M177.193,409.355c13.5-0.092,26.989-0.358,40.454-1.327
		c6.512-0.468,13.016-1.05,19.516-1.668c8.853-0.841,17.614-2.29,26.289-4.242c9.775-2.199,19.3-5.147,28.318-9.588
		c10.003-4.927,18.7-11.48,25.447-20.459c6.679-8.888,10.677-18.969,13.142-29.713c2.264-9.867,3.11-19.894,3.486-29.996
		c0.644-17.288-1.59-34.17-7.152-50.527c-13.993-41.149-39.569-73.323-75.877-97.03c-9.224-6.022-19.12-10.743-29.542-14.346
		c-1.125-0.389-2.037-0.404-3.112,0.237c-1.905,1.136-3.909,2.114-5.903,3.092c-11.397,5.59-23.406,9.096-36.056,10.18
		c-7.215,0.619-14.434,0.406-21.633-0.639c-9.979-1.448-19.49-4.337-28.492-8.863c-1.236-0.621-2.286-0.599-3.542-0.219
		c-8.511,2.57-16.397,6.457-23.852,11.25c-12.447,8.003-23.252,17.887-32.831,29.112c-19.333,22.655-33.292,48.191-40.887,77.08
		c-2.411,9.168-3.972,18.492-4.367,27.975c-0.366,8.768-0.101,17.524,0.774,26.265c0.862,8.605,2.394,17.064,5.088,25.293
		c5.461,16.682,15.548,29.652,30.829,38.473c8.91,5.143,18.473,8.609,28.392,11.161c11.587,2.981,23.365,4.885,35.276,5.899
		c9.139,0.778,18.287,1.527,27.447,1.942C157.99,409.133,167.596,409.153,177.193,409.355z M116.171,90.068
		c4.794,8.625,8.206,17.26,10.422,26.353c2.233,9.16,3.013,18.476,2.706,27.769c27.228,14.633,60.738,11.633,85.299-3.825
		c-2.097-12.207-2.079-24.448-0.018-36.699c2.061-12.257,6.047-23.885,11.34-35.147c-0.684,0.315-1.223,0.707-1.702,1.16
		c-3.79,3.584-7.596,7.152-11.344,10.779c-4.095,3.964-8.643,7.198-14.074,9.078c-10.268,3.554-19.679,0.366-25.545-8.078
		c-0.595-0.856-1.173-1.74-1.878-2.501c-2.026-2.187-3.949-4.514-6.216-6.425c-3.203-2.699-5.583-2.723-9.104-0.376
		c-1.899,1.266-3.693,2.732-5.356,4.298c-2.377,2.24-4.605,4.64-6.871,6.996c-4.836,5.03-10.638,7.944-17.693,8.126
		C122.929,91.659,119.785,91.213,116.171,90.068z M236.239,35.959c-0.407,0-0.958-0.074-1.482,0.013
		c-1.779,0.296-3.567,0.572-5.317,0.994c-5.596,1.349-11.162,2.823-16.768,4.126c-3.891,0.904-7.881,1.064-11.823,0.519
		c-5.578-0.77-10.235-3.405-13.933-7.675c-3.465-4.001-6.942-8.005-11.118-11.283c-1.953-1.532-4.085-2.903-6.303-4.015
		c-2.892-1.451-5.841-1.133-8.455,0.827c-1.383,1.037-2.769,2.158-3.851,3.487c-2.103,2.583-3.976,5.352-5.978,8.019
		c-1.5,1.999-2.892,4.113-4.611,5.908c-6.006,6.273-13.748,8.724-22.122,9.382c-5.122,0.402-10.284,0.282-15.422,0.515
		c-3.744,0.17-7.494,0.409-11.212,0.855c-2.37,0.285-4.747,0.844-6.714,2.289c0.034,0.276,0.013,0.432,0.073,0.545
		c0.494,0.918,0.99,1.835,1.512,2.737c4.057,7.018,8.689,13.602,14.671,19.14c3.495,3.236,7.33,5.963,11.865,7.588
		c2.865,1.027,5.796,1.448,8.807,0.891c3.186-0.589,5.799-2.234,8.025-4.55c2.218-2.308,4.399-4.654,6.69-6.886
		c2.894-2.819,5.947-5.459,9.582-7.32c5.867-3.003,11.657-2.849,17.227,0.671c1.924,1.216,3.795,2.646,5.339,4.305
		c2.552,2.741,4.891,5.692,7.189,8.656c3.283,4.237,7.132,5.579,12.316,4.122c4.202-1.181,7.621-3.627,10.714-6.6
		c3.01-2.893,5.946-5.865,9.029-8.678c4.728-4.314,9.622-8.448,14.309-12.805c2.126-1.977,4.007-4.24,5.841-6.501
		c1.149-1.416,1.72-3.149,1.712-5.044C236.024,38.829,236.159,37.465,236.239,35.959z"/>
	<path d="M256.707,306.978c0.662,0.333,1.087,0.536,1.502,0.758c2.147,1.146,3.29,2.867,3.271,5.373
		c-0.04,5.358-0.098,10.719,0.019,16.075c0.07,3.206-2.382,5.623-5.442,6.092c-0.957,0.147-1.942,0.155-2.914,0.155
		c-46.895-0.033-93.789-0.069-140.684-0.143c-1.427-0.002-2.941-0.189-4.262-0.691c-2.421-0.921-3.689-2.785-3.68-5.488
		c0.03-9.325,0.012-18.65,0.013-27.975c0.001-13.779,0-27.558,0.004-41.337c0.001-4.091,1.735-6.214,5.751-6.82
		c1.569-0.237,3.185-0.234,4.779-0.22c2.987,0.025,5.995-0.069,8.953,0.263c3.944,0.442,5.694,2.639,5.695,6.609
		c0.005,14.823-0.003,29.646-0.007,44.469c0,0.812,0,1.625,0,2.582c12.267,0,24.261,0,36.525,0c0-0.886,0-1.7,0-2.514
		c0.004-12.526,0.005-25.053,0.012-37.579c0.003-4.847,2.38-7.223,7.298-7.258c3.548-0.025,7.097-0.033,10.645,0.019
		c0.959,0.014,1.952,0.152,2.864,0.442c2.587,0.821,4.376,2.908,4.356,5.883c-0.086,12.804-0.039,25.609-0.04,38.414
		c0,0.823,0,1.647,0,2.623c2.776,0,5.389,0,8.22,0c-3.782-1.976-2.383-5.332-2.348-8.312c0.005-0.415,0.39-0.896,0.722-1.224
		c1.451-1.434,3.224-1.536,5.041-0.964c1.618,0.509,2.373,1.771,2.432,3.727c0.019,0.626-0.041,1.257,0.014,1.878
		c0.186,2.13-0.397,3.847-2.933,4.935c3.89,0,7.315,0,10.964,0c-0.382-0.305-0.662-0.528-0.94-0.751
		c-1.895-1.525-2.281-7.103-0.563-8.827c1.443-1.448,3.263-1.557,5.051-0.94c1.674,0.578,2.507,1.744,2.367,3.728
		c-0.039,0.554-0.004,1.113-0.004,1.67c-0.003,3.212-0.01,3.228-2.368,5.123c0.227,0.046,0.407,0.114,0.588,0.115
		c3.263,0.006,6.527,0.005,9.861,0.005c-0.757-0.802-1.689-1.422-2.059-2.284c-0.388-0.903-0.257-2.036-0.312-3.071
		c-0.037-0.694-0.033-1.393,0.007-2.087c0.122-2.116,1.56-3.39,3.895-3.481c2.401-0.093,4.226,1.152,4.42,3.192
		c0.138,1.448,0.099,2.924,0.009,4.379c-0.091,1.458-1.044,2.375-2.316,3.154c1.684,0.251,3.357,0.197,5.025,0.207
		c1.723,0.011,3.445,0.002,5.102,0.002c-0.728-1.026-1.835-1.924-2.003-2.973c-0.291-1.812-0.233-3.763,0.116-5.57
		c0.345-1.786,2.49-2.643,4.798-2.315c1.974,0.28,3.146,1.494,3.257,3.438c0.051,0.902-0.042,1.813,0.03,2.713
		c0.16,2.006-0.468,3.55-2.86,4.567c3.945,0,7.419,0,10.825,0c-0.619-0.639-1.552-1.243-1.929-2.093
		c-0.396-0.895-0.285-2.025-0.348-3.055c-0.043-0.693-0.031-1.392,0.001-2.087c0.101-2.202,1.596-3.5,4.042-3.534
		c2.543-0.036,4.175,1.292,4.289,3.534c0.049,0.972,0.017,1.948,0.01,2.922c-0.017,2.654-0.908,3.776-3.484,4.38
		C257.656,306.885,257.312,306.9,256.707,306.978z M113.005,328.371c3.207,0.459,138.587,0.341,139.975-0.09
		c0-4.363,0-8.714,0-13.143c-0.455-0.062-0.789-0.146-1.125-0.148c-2.852-0.017-5.704-0.022-8.556-0.025
		c-18.016-0.022-36.032-0.032-54.048-0.069c-4.665-0.01-6.237-1.628-6.237-6.271c0.001-12.106,0.004-24.212,0.001-36.318
		c0-0.735-0.048-1.471-0.075-2.218c-2.867,0-5.484,0-8.324,0c0,1.486,0,2.861,0,4.237c-0.002,11.758,0.004,23.516-0.011,35.274
		c-0.004,3.172-1.799,5.044-4.958,5.252c-0.485,0.032-0.973,0.028-1.46,0.028c-13.495-0.006-26.99-0.013-40.484-0.023
		c-0.556,0-1.116,0.013-1.668-0.04c-2.897-0.277-4.643-2.169-4.709-5.087c-0.014-0.626-0.003-1.252-0.003-1.878
		c0.005-13.845,0.011-27.691,0.011-41.536c0-0.8-0.051-1.6-0.078-2.388c-2.897,0-5.513,0-8.251,0
		C113.005,285.444,113.005,306.845,113.005,328.371z"/>
	<path d="M159.174,325.204c-3.545,0-7.091,0.06-10.633-0.037c-1.068-0.029-2.243-0.285-3.162-0.804
		c-2.165-1.224-2.161-4.016-0.008-5.258c0.86-0.496,1.961-0.795,2.956-0.804c7.228-0.064,14.457-0.061,21.685,0.009
		c0.995,0.01,2.094,0.317,2.956,0.814c2.154,1.243,2.162,4.031,0,5.253c-0.917,0.518-2.093,0.768-3.161,0.797
		c-3.542,0.096-7.089,0.036-10.633,0.036C159.174,325.208,159.174,325.206,159.174,325.204z"/>
	<path d="M131.025,325.195c-1.663,0-3.328,0.058-4.987-0.023c-0.882-0.043-1.802-0.203-2.615-0.533
		c-1.235-0.501-2.036-1.502-2.05-2.877c-0.014-1.369,0.733-2.393,1.977-2.92c0.747-0.316,1.591-0.546,2.395-0.559
		c3.601-0.057,7.204-0.048,10.806,0.002c0.742,0.01,1.528,0.183,2.208,0.479c1.284,0.558,2.15,1.503,2.119,3.029
		c-0.03,1.524-0.933,2.445-2.231,2.951c-0.754,0.294-1.611,0.406-2.428,0.436c-1.73,0.063-3.463,0.019-5.195,0.019
		C131.025,325.197,131.025,325.196,131.025,325.195z"/>
</g>
</svg>
