<?xml version="1.0" encoding="iso-8859-1"?>
<!-- Generator: Adobe Illustrator 26.0.1, SVG Export Plug-In . SVG Version: 6.00 Build 0)  -->
<svg version="1.1" id="Calque_1" xmlns="http://www.w3.org/2000/svg" xmlns:xlink="http://www.w3.org/1999/xlink" x="0px" y="0px"
	 viewBox="0 0 90.72 92.88" style="enable-background:new 0 0 90.72 92.88;" xml:space="preserve">
<g>
	<path d="M84.883,46.098c0-0.408,0.009-0.749-0.002-1.09c-0.029-0.958-0.078-1.916-0.094-2.874c-0.005-0.309-0.14-0.468-0.394-0.611
		c-1.498-0.84-2.989-1.693-4.48-2.543c-1.693-0.965-3.385-1.931-5.076-2.899c-0.318-0.182-0.641-0.333-1.018-0.351
		c-0.656-0.031-1.198,0.173-1.6,0.71c-0.208,0.278-0.414,0.558-0.64,0.821c-0.42,0.486-1.03,0.408-1.325-0.165
		c-0.573-1.117-1.14-2.236-1.712-3.354c-0.075-0.147-0.141-0.304-0.245-0.428C68,32.958,68.012,32.6,68.226,32.213
		c0.48-0.867,0.952-1.738,1.427-2.608c0.063-0.116,0.131-0.23,0.184-0.351c0.223-0.514-0.055-1.01-0.608-1.027
		c-0.776-0.023-1.554-0.018-2.331,0c-0.388,0.009-0.635,0.276-0.67,0.661c-0.012,0.131-0.004,0.264-0.004,0.397
		c0,2.728,0.003,5.456-0.002,8.184c-0.002,0.978-0.558,1.691-1.477,1.916c-0.49,0.12-0.943,0.006-1.387-0.213
		c-1.732-0.855-3.472-1.69-5.2-2.554c-0.868-0.434-1.012-0.453-1.752,0.292c-1.899,1.912-3.843,3.78-5.714,5.719
		c-0.728,0.755-1.835,0.635-2.403,0.103c-0.723-0.678-1.444-1.365-2.101-2.106c-0.85-0.958-0.484-2.388,0.702-2.934
		c1.259-0.58,2.514-1.167,3.778-1.734c0.393-0.177,0.622-0.423,0.713-0.865c0.228-1.116,0.517-2.219,0.76-3.331
		c0.247-1.134,0.875-1.931,1.962-2.37c0.734-0.296,1.45-0.636,2.18-0.943c0.742-0.313,1.242-0.843,1.53-1.595
		c0.851-2.22,1.703-4.439,2.575-6.65c0.358-0.907,0.194-1.669-0.484-2.355c-0.581-0.588-1.156-1.183-1.704-1.801
		c-0.719-0.812-1.694-0.788-2.382-0.076c-0.298,0.309-0.629,0.586-0.937,0.886c-0.394,0.384-0.402,0.772-0.017,1.159
		c0.338,0.34,0.683,0.674,1.036,0.998c0.483,0.442,0.62,0.951,0.363,1.565c-0.172,0.411-0.317,0.833-0.489,1.244
		c-0.274,0.653-0.805,0.918-1.487,0.71c-1.214-0.372-2.419-0.769-3.628-1.155c-0.875-0.28-1.503-1.307-1.161-2.414
		c0.491-1.593,0.941-3.199,1.408-4.799c0.139-0.475,0.28-0.95,0.418-1.425c0.184-0.634,0.59-1.065,1.211-1.274
		c1.842-0.622,3.687-1.236,5.533-1.849c0.2-0.066,0.408-0.106,0.623-0.16c0-0.483,0-0.943,0-1.44
		c-4.881-1.747-9.916-2.448-15.079-2.187c-5.145,0.26-10.056,1.518-14.762,3.75c0-1.401,0-2.732,0-4.106
		c0.155-0.072,0.327-0.161,0.506-0.234c2.973-1.21,6.038-2.088,9.206-2.626c3.044-0.517,6.108-0.711,9.182-0.542
		c9.662,0.532,18.243,3.877,25.632,10.138c7.224,6.123,11.939,13.826,14.141,23.04c0.951,3.977,1.295,8.018,1.058,12.106
		c-0.549,9.446-3.854,17.813-9.854,25.117c-2.448,2.98-5.277,5.558-8.427,7.784c-0.262,0.185-0.522,0.251-0.83,0.222
		c-1.65-0.151-3.254-0.513-4.881-1.014c1.202-0.775,2.401-1.487,3.532-2.295c1.155-0.825,2.261-1.721,3.354-2.628
		c1.08-0.897,2.071-1.891,3.04-2.965c-0.119-0.095-0.211-0.18-0.314-0.25c-0.988-0.663-1.969-1.335-2.969-1.979
		c-0.685-0.441-1.136-1.029-1.377-1.809c-0.317-1.025-0.67-2.039-1.011-3.056c-0.211-0.63-0.374-0.744-1.045-0.745
		c-0.711-0.001-1.422,0.017-2.133-0.007c-0.398-0.013-0.688,0.126-0.961,0.407c-0.807,0.83-1.641,1.632-2.448,2.462
		c-0.601,0.618-1.321,0.899-2.176,0.894c-1.521-0.009-3.042-0.009-4.563,0c-0.855,0.005-1.569-0.282-2.176-0.895
		c-1.639-1.658-3.286-3.307-4.945-4.946c-0.614-0.606-0.904-1.318-0.901-2.175c0.009-2.133-0.011-4.266,0.014-6.398
		c0.005-0.435,0.107-0.885,0.251-1.298c0.179-0.511,0.566-0.87,1.042-1.149c2.636-1.544,5.264-3.101,7.895-4.654
		c0.227-0.134,0.464-0.257,0.676-0.412c0.557-0.407,1.182-0.557,1.862-0.556c3.092,0.005,6.183-0.005,9.275,0.01
		c0.45,0.002,0.774-0.132,1.079-0.466c1.195-1.304,2.415-2.585,3.625-3.875c0.045-0.048,0.09-0.097,0.136-0.145
		c0.467-0.485,0.778-0.537,1.359-0.208c1.536,0.872,3.07,1.749,4.604,2.625c1.692,0.966,3.383,1.933,5.076,2.898
		C84.525,45.928,84.672,45.992,84.883,46.098z"/>
	<path d="M53.863,87.243c-0.56,0.104-1.04,0.21-1.524,0.281c-2.274,0.336-4.557,0.532-6.859,0.52
		c-5.766-0.029-11.308-1.153-16.612-3.411C16.514,79.372,7.309,68.655,3.973,55.637c-1.094-4.271-1.505-8.614-1.251-13.022
		c0.338-5.868,1.838-11.42,4.431-16.689c0.203-0.412,0.468-0.615,0.898-0.73c1.385-0.371,2.76-0.777,4.139-1.168
		c0.108-0.031,0.218-0.05,0.429-0.098c-0.514,0.893-1,1.7-1.448,2.527c-0.456,0.841-0.874,1.702-1.318,2.571
		c0.108,0.154,0.196,0.289,0.293,0.418c1.674,2.235,3.337,4.48,5.032,6.699c0.515,0.674,0.665,1.357,0.452,2.176
		c-0.603,2.316-1.181,4.639-1.749,6.965c-0.146,0.595-0.455,1.039-0.942,1.401c-2.002,1.489-3.993,2.992-6.032,4.523
		c0.244,1.675,0.629,3.337,1.135,5.017c0.179,0,0.342,0,0.504,0c1.008,0,2.017-0.022,3.025,0.01
		c0.455,0.014,0.924,0.082,1.356,0.219c1.507,0.478,2.999,1.005,4.503,1.494c0.292,0.095,0.611,0.144,0.918,0.146
		c1.554,0.014,3.108,0.011,4.662,0.005c0.916-0.004,1.561,0.374,1.974,1.217c1.164,2.371,2.351,4.731,3.544,7.088
		c0.318,0.628,0.372,1.236,0.137,1.908c-0.544,1.558-1.055,3.126-1.567,4.695c-0.08,0.246-0.13,0.514-0.132,0.772
		c-0.011,1.769,0.004,3.538-0.015,5.306c-0.004,0.349,0.115,0.528,0.417,0.686c3.473,1.814,7.125,3.105,10.979,3.831
		c2.754,0.518,5.528,0.745,8.327,0.666c0.511-0.014,1.022-0.077,1.533-0.089c0.169-0.004,0.359,0.049,0.508,0.133
		c1.628,0.91,3.249,1.831,4.871,2.75C53.657,87.103,53.722,87.15,53.863,87.243z"/>
	<path d="M21.393,32.755c0.545-0.185,1.07-0.376,1.604-0.537c0.147-0.044,0.332-0.034,0.481,0.01
		c0.442,0.131,0.87,0.313,1.314,0.432c0.266,0.072,0.32,0.216,0.335,0.46c0.062,1.039,0.117,2.079,0.22,3.114
		c0.255,2.555,0.814,5.051,1.546,7.508c1.819,6.098,4.643,11.712,8.189,16.978c2.923,4.341,6.314,8.273,10.254,11.723
		c4.379,3.833,9.167,7.029,14.547,9.297c2.377,1.003,4.828,1.768,7.373,2.208c1.599,0.276,3.213,0.411,4.835,0.313
		c1.623-0.098,3.206-0.403,4.698-1.081c2.566-1.166,4.232-3.15,5.215-5.751c0.488-1.29,0.756-2.63,0.901-3.999
		c0.02-0.186,0.082-0.393,0.191-0.541c1.185-1.613,2.279-3.284,3.265-5.026c0.03-0.053,0.076-0.096,0.184-0.231
		c0.07,0.777,0.153,1.456,0.188,2.137c0.125,2.489-0.017,4.956-0.673,7.373c-0.775,2.856-2.16,5.347-4.401,7.324
		c-1.734,1.53-3.755,2.505-5.987,3.042c-2.069,0.498-4.169,0.621-6.295,0.464c-4.815-0.355-9.294-1.855-13.598-3.949
		c-4.77-2.321-9.104-5.304-13.044-8.844c-8.447-7.591-14.577-16.762-18.51-27.404c-1.119-3.027-1.912-6.146-2.403-9.337
		c-0.269-1.749-0.437-3.509-0.456-5.28C21.364,33.028,21.383,32.899,21.393,32.755z"/>
	<path d="M36.286,18.848c0,0.6,0,1.191,0,1.833c-0.146-0.024-0.269-0.032-0.385-0.065c-3.424-0.973-6.847-1.948-10.271-2.922
		c-0.153-0.043-0.309-0.075-0.511-0.124c-0.01,0.219-0.023,0.379-0.023,0.539c-0.001,1.967,0.007,3.934-0.008,5.901
		c-0.002,0.328,0.102,0.554,0.33,0.778c1.049,1.031,2.079,2.082,3.128,3.113c0.205,0.201,0.306,0.401,0.293,0.69
		c-0.02,0.461-0.005,0.923-0.005,1.448c-0.167-0.039-0.304-0.06-0.433-0.103c-1.58-0.523-3.161-1.043-4.736-1.581
		c-0.314-0.107-0.59-0.102-0.902,0.005c-1.527,0.524-3.061,1.03-4.593,1.54c-0.166,0.055-0.338,0.093-0.559,0.153
		c0-0.595-0.019-1.139,0.012-1.68c0.009-0.154,0.141-0.324,0.259-0.444c1.033-1.047,2.069-2.092,3.121-3.12
		c0.245-0.24,0.343-0.484,0.341-0.824c-0.013-1.95-0.006-3.901-0.007-5.852c0-0.162-0.013-0.325-0.023-0.546
		c-0.17,0.033-0.309,0.049-0.442,0.087c-3.344,0.952-6.688,1.907-10.032,2.86c-0.216,0.061-0.434,0.114-0.714,0.187
		c0-0.614-0.018-1.156,0.014-1.696c0.007-0.121,0.171-0.267,0.298-0.342c1.011-0.592,2.031-1.171,3.048-1.752
		c2.465-1.409,4.925-2.827,7.401-4.216c0.361-0.203,0.46-0.433,0.458-0.82c-0.015-2.529-0.009-5.058-0.005-7.587
		c0-0.264,0.005-0.531,0.051-0.79c0.157-0.888,0.952-1.502,1.893-1.484c0.889,0.017,1.661,0.688,1.779,1.562
		c0.031,0.228,0.03,0.462,0.03,0.693c0.002,2.562,0.007,5.124-0.006,7.686c-0.002,0.336,0.093,0.525,0.398,0.698
		c3.447,1.954,6.883,3.926,10.322,5.893C35.965,18.657,36.119,18.75,36.286,18.848z"/>
</g>
</svg>
