<?xml version="1.0" encoding="iso-8859-1"?>
<!-- Generator: Adobe Illustrator 26.0.1, SVG Export Plug-In . SVG Version: 6.00 Build 0)  -->
<svg version="1.1" id="Calque_1" xmlns="http://www.w3.org/2000/svg" xmlns:xlink="http://www.w3.org/1999/xlink" x="0px" y="0px"
	 viewBox="0 0 117.36 174.43" style="enable-background:new 0 0 117.36 174.43;" xml:space="preserve">
<g>
	<path style="stroke:#000000;stroke-width:2;stroke-miterlimit:10;" d="M76.862,131.796c0.304,0,0.552,0.015,0.798-0.002
		c2.825-0.197,4.607,2.387,4.802,4.315c0.037,0.36,0.059,0.724,0.06,1.085c0.004,5.44-0.006,10.88,0.007,16.321
		c0.004,1.709-0.532,3.155-1.811,4.331c-0.764,0.703-1.636,1.033-2.65,1.035c-2.007,0.006-4.015-0.011-6.022,0.011
		c-0.631,0.007-1.262,0.112-1.907,0.174c-0.079,0.809-0.118,1.557-0.229,2.295c-0.559,3.731-2.231,6.802-5.388,8.974
		c-3.376,2.323-6.947,2.492-10.507,0.627c-2.728-1.429-4.613-3.739-5.653-6.677c-0.543-1.534-0.871-3.112-0.879-4.747
		c-0.001-0.134-0.028-0.268-0.051-0.481c-0.654-0.059-1.283-0.158-1.914-0.165c-1.868-0.022-3.736-0.006-5.604-0.008
		c-2.551-0.003-4.54-1.793-4.829-4.352c-0.044-0.387-0.064-0.779-0.064-1.169c-0.004-5.357-0.017-10.713,0.015-16.069
		c0.005-0.794,0.11-1.631,0.378-2.372c0.638-1.758,2.214-3.258,4.46-3.127c0.275,0.016,0.551,0.002,0.853,0.002
		c0.036-0.185,0.083-0.316,0.083-0.447c0.002-1.702,0.015-3.404-0.012-5.105c-0.021-1.295-0.347-2.538-0.778-3.751
		c-0.683-1.924-1.537-3.773-2.65-5.484c-1.338-2.055-2.676-4.115-4.128-6.088c-1.916-2.604-3.942-5.127-5.922-7.685
		c-2.065-2.667-4.172-5.304-6.189-8.008c-3.001-4.024-5.868-8.144-8.342-12.52c-2.199-3.889-4.101-7.917-5.466-12.184
		c-1.753-5.48-2.463-11.078-2.048-16.831c0.392-5.435,1.497-10.698,3.442-15.788c1.64-4.294,3.798-8.302,6.457-12.054
		c1.781-2.513,3.808-4.799,5.954-6.998c2.212-2.267,4.69-4.193,7.254-6.031c4.23-3.032,8.889-5.162,13.789-6.856
		c6.504-2.248,13.193-2.93,20.012-2.57c3.878,0.205,7.707,0.829,11.422,1.974c4.943,1.524,9.696,3.515,14.025,6.383
		c2.812,1.863,5.521,3.88,7.952,6.236c3.846,3.728,7.159,7.879,9.793,12.551c2.283,4.048,4.038,8.319,5.215,12.82
		c1.314,5.022,1.934,10.129,1.767,15.319c-0.102,3.186-0.592,6.322-1.395,9.412c-1.121,4.312-2.799,8.399-4.848,12.346
		c-2.228,4.291-4.809,8.359-7.67,12.249c-1.899,2.583-3.846,5.13-5.802,7.67c-1.65,2.143-3.359,4.24-5.012,6.379
		c-1.5,1.941-3.015,3.874-4.422,5.883c-1.309,1.87-2.547,3.798-3.699,5.769c-1.156,1.977-2.055,4.082-2.49,6.355
		c-0.073,0.383-0.15,0.772-0.154,1.159C76.854,127.822,76.862,129.741,76.862,131.796z M76.464,131.748
		c0-1.572-0.027-3.048,0.01-4.523c0.022-0.861,0.094-1.728,0.238-2.576c0.35-2.056,1.136-3.979,2.16-5.769
		c1.244-2.175,2.588-4.3,4.008-6.364c1.374-1.996,2.881-3.902,4.363-5.821c1.67-2.162,3.39-4.286,5.064-6.445
		c1.606-2.07,3.224-4.133,4.758-6.257c1.697-2.349,3.347-4.735,4.941-7.155c2.551-3.873,4.707-7.961,6.456-12.263
		c1.732-4.261,2.915-8.66,3.387-13.239c0.409-3.963,0.214-7.917-0.35-11.849c-0.955-6.668-3.11-12.94-6.424-18.801
		c-2.807-4.967-6.37-9.343-10.55-13.217c-2.318-2.148-4.873-3.998-7.515-5.711c-4.382-2.841-9.185-4.776-14.174-6.251
		c-3.487-1.031-7.072-1.587-10.697-1.778c-6.363-0.335-12.623,0.236-18.734,2.199c-5.071,1.629-9.895,3.732-14.279,6.794
		c-2.655,1.854-5.222,3.803-7.505,6.119c-2.118,2.148-4.157,4.352-5.895,6.828c-1.33,1.896-2.6,3.821-3.707,5.861
		c-3.754,6.92-5.851,14.304-6.408,22.154c-0.392,5.523,0.234,10.91,1.86,16.191c1.46,4.742,3.588,9.184,6.069,13.462
		c2.395,4.13,5.125,8.039,7.984,11.855c2.056,2.744,4.198,5.424,6.296,8.136c2.013,2.602,4.068,5.173,6.011,7.827
		c1.415,1.932,2.699,3.961,4,5.974c0.971,1.502,1.706,3.13,2.342,4.801c0.651,1.71,1.027,3.467,0.982,5.31
		c-0.031,1.283-0.009,2.567-0.003,3.85c0.001,0.214,0.038,0.428,0.065,0.706c0.301,0,0.548,0,0.796,0
		c2.621,0,5.242-0.016,7.862,0.012c0.588,0.006,0.993-0.189,1.37-0.621c1.221-1.397,2.196-2.955,3.012-4.609
		c1.522-3.087,2.64-6.321,3.433-9.671c1.327-5.606,1.701-11.293,1.463-17.033c-0.02-0.474-0.045-0.948-0.089-1.419
		c-0.07-0.737-0.398-0.991-1.124-0.813c-0.484,0.119-0.95,0.316-1.419,0.494c-0.912,0.345-1.806,0.74-2.73,1.045
		c-3.801,1.254-7.366,0.749-10.671-1.515c-1.457-0.997-2.718-2.2-3.872-3.544c-3.048-3.551-5.281-7.582-7.149-11.84
		c-0.022-0.051-0.039-0.105-0.059-0.157c-2.532-6.392-3.158-13.023-2.414-19.81c0.482-4.397,1.561-8.664,3.048-12.824
		c1.562-4.371,3.566-8.541,5.957-12.514c2.029-3.372,4.274-6.6,6.886-9.556c0.72-0.815,1.486-1.589,2.215-2.395
		c1.732-1.914,3.707-3.539,5.871-4.936c0.274-0.177,0.563-0.33,0.828-0.484c0.089,0.094,0.15,0.129,0.16,0.174
		c0.605,2.705,2.09,4.933,3.982,6.854c2.032,2.062,4.193,4.002,6.365,5.917c2.174,1.916,4.443,3.724,6.65,5.602
		c2.421,2.06,4.787,4.179,6.913,6.554c1.75,1.955,3.42,3.96,4.849,6.174c3.376,5.23,5.115,10.91,4.98,17.159
		c-0.074,3.443-0.477,6.84-1.228,10.196c-0.802,3.579-1.989,7.026-3.698,10.277c-1.176,2.237-2.663,4.241-4.564,5.937
		c-1.514,1.352-3.233,2.173-5.266,2.231c-0.91,0.026-1.825-0.081-2.58-0.506c-0.313-2.491-0.58-4.901-0.924-7.3
		c-0.691-4.819-1.915-9.505-3.651-14.052c-1.195-3.129-2.631-6.15-4.259-9.077c-1.179-2.119-2.412-4.209-3.552-6.349
		c-0.982-1.843-1.924-3.712-2.781-5.616c-1.326-2.946-2.088-6.052-2.36-9.274c-0.051-0.61-0.112-1.22-0.169-1.829
		c-0.189,0.832-0.266,1.662-0.339,2.492c-0.428,4.891,0.067,9.686,1.463,14.393c1.096,3.695,2.61,7.233,4.009,10.814
		c1.585,4.054,2.987,8.162,4.032,12.391c0.938,3.796,1.636,7.636,2.037,11.52c0.346,3.355,0.59,6.723,0.766,10.092
		c0.311,5.975,0.153,11.936-0.881,17.847c-0.549,3.14-1.336,6.213-2.78,9.082c-0.06,0.118-0.087,0.253-0.15,0.441
		C66.465,131.748,71.411,131.748,76.464,131.748z"/>
</g>
</svg>
