<?xml version="1.0" encoding="iso-8859-1"?>
<!-- Generator: Adobe Illustrator 26.0.1, SVG Export Plug-In . SVG Version: 6.00 Build 0)  -->
<svg version="1.1" id="Calque_1" xmlns="http://www.w3.org/2000/svg" xmlns:xlink="http://www.w3.org/1999/xlink" x="0px" y="0px"
	 viewBox="0 0 87.36 127.68" style="enable-background:new 0 0 87.36 127.68;" xml:space="preserve">
<g>
	<path d="M43.714,2.888c0.469,0.62,0.9,1.173,1.313,1.74c1.638,2.244,3.291,4.478,4.898,6.744c1.54,2.17,3.049,4.362,4.538,6.567
		c1.501,2.221,2.983,4.455,4.433,6.71c1.534,2.386,3.046,4.788,4.518,7.213c1.461,2.409,2.907,4.829,4.275,7.292
		c1.796,3.233,3.546,6.492,5.246,9.776c1.673,3.233,3.19,6.544,4.587,9.906c2.265,5.452,4.206,11.006,5.294,16.829
		c0.729,3.901,0.857,7.819,0.445,11.763c-0.465,4.454-1.561,8.741-3.313,12.862c-1.214,2.856-2.723,5.546-4.516,8.08
		c-1.531,2.163-3.254,4.161-5.162,5.994c-1.312,1.26-2.714,2.417-4.185,3.494c-1.819,1.332-3.749,2.476-5.757,3.487
		c-0.976,0.491-1.987,0.919-3.005,1.317c-1.951,0.764-3.962,1.343-6.01,1.782c-0.803,0.172-1.621,0.275-2.434,0.399
		c-1.707,0.26-3.425,0.383-5.153,0.393c-2.499,0.014-4.973-0.268-7.415-0.75c-1.569-0.31-3.126-0.738-4.641-1.254
		c-1.531-0.521-3.034-1.152-4.494-1.849c-2.35-1.122-4.544-2.508-6.619-4.091c-2.565-1.957-4.86-4.187-6.895-6.68
		c-2.261-2.771-4.137-5.789-5.645-9.038C6.29,97.855,5.1,93.974,4.457,89.929c-0.69-4.343-0.787-8.692-0.084-13.051
		c0.717-4.446,1.975-8.742,3.51-12.963c2.076-5.712,4.624-11.214,7.397-16.617c2.378-4.633,4.903-9.185,7.611-13.631
		c2.412-3.959,4.885-7.884,7.417-11.767c2.212-3.392,4.51-6.729,6.834-10.045c2.021-2.883,4.132-5.704,6.205-8.55
		C43.438,3.181,43.55,3.073,43.714,2.888z M39.87,23.66c-0.048-0.013-0.096-0.025-0.143-0.038c-0.088,0.169-0.185,0.335-0.264,0.508
		c-1.949,4.232-4.101,8.361-6.329,12.45c-2.65,4.862-5.337,9.703-7.992,14.561c-2.065,3.778-4.043,7.601-5.824,11.523
		c-1.49,3.282-2.834,6.62-3.794,10.1c-0.775,2.807-1.303,5.656-1.183,8.579c0.071,1.739,0.212,3.482,0.442,5.207
		c0.416,3.118,1.255,6.131,2.463,9.039c1.202,2.892,2.774,5.566,4.758,7.989c1.229,1.501,2.584,2.888,4.116,4.083
		c1.016,0.792,2.067,1.542,3.132,2.266c0.606,0.412,1.271,0.736,2.021,1.163c-0.061-0.243-0.083-0.351-0.115-0.456
		c-0.519-1.744-1.086-3.475-1.549-5.234c-1.203-4.566-2.151-9.188-2.794-13.868c-0.296-2.155-0.523-4.319-0.493-6.499
		c0.059-4.301,0.577-8.557,1.309-12.788c0.865-4.998,1.968-9.947,3.303-14.839c1.778-6.512,3.642-13.001,5.472-19.5
		c1.029-3.654,2.09-7.301,2.874-11.019C39.505,25.818,39.675,24.736,39.87,23.66z"/>
</g>
</svg>
