<?xml version="1.0" encoding="iso-8859-1"?>
<!-- Generator: Adobe Illustrator 26.0.1, SVG Export Plug-In . SVG Version: 6.00 Build 0)  -->
<svg version="1.1" id="Calque_1" xmlns="http://www.w3.org/2000/svg" xmlns:xlink="http://www.w3.org/1999/xlink" x="0px" y="0px"
	 viewBox="0 0 87.36 90.24" style="enable-background:new 0 0 87.36 90.24;" xml:space="preserve">
<g>
	<path d="M85.479,45.031c-0.113,10.398-3.355,19.679-10.075,27.651c-6.137,7.281-13.902,11.936-23.238,13.903
		c-3.581,0.754-7.208,0.998-10.859,0.721c-11.736-0.89-21.359-5.935-28.923-14.897c-4.619-5.473-7.555-11.79-8.99-18.801
		c-0.76-3.711-1.03-7.467-0.769-11.243c0.753-10.906,4.943-20.281,12.735-27.97c5.797-5.721,12.733-9.381,20.726-10.991
		c3.73-0.751,7.497-0.941,11.295-0.633c12.141,0.983,23.028,7.411,30.027,17.129c3.741,5.194,6.172,10.949,7.353,17.236
		C85.233,39.643,85.467,42.34,85.479,45.031z M4.32,44.977c0.008,2.755,0.264,5.482,0.81,8.176
		c1.436,7.094,4.47,13.425,9.262,18.856c7.025,7.962,15.823,12.517,26.434,13.469c3.976,0.357,7.919,0.086,11.801-0.826
		c9.738-2.29,17.52-7.556,23.371-15.639c4.486-6.198,6.958-13.16,7.557-20.788c0.281-3.569,0.112-7.116-0.534-10.634
		c-1.355-7.371-4.433-13.942-9.396-19.564C66.428,9.874,57.403,5.304,46.52,4.508c-3.508-0.257-6.989-0.011-10.426,0.719
		c-8.235,1.75-15.23,5.73-20.915,11.923C7.967,25.006,4.475,34.351,4.32,44.977z"/>
	<path d="M78.826,45.005c-0.194-10.208-3.793-18.962-11.169-26.102c-0.092-0.089-0.192-0.172-0.274-0.27
		c-0.213-0.253-0.208-0.575,0.003-0.782c0.195-0.191,0.503-0.202,0.747-0.021c0.077,0.057,0.143,0.128,0.213,0.194
		c5.572,5.31,9.153,11.734,10.769,19.256c0.709,3.298,0.94,6.635,0.738,9.995c-0.811,13.515-8.734,25.083-20.146,30.77
		c-3.53,1.759-7.251,2.895-11.167,3.391c-11.849,1.502-23.498-2.955-31.339-11.997c-4.463-5.147-7.293-11.081-8.515-17.777
		c-0.572-3.138-0.769-6.308-0.48-9.485c1.047-11.502,6.178-20.722,15.576-27.481c4.225-3.039,8.956-4.947,14.086-5.855
		c3.259-0.577,6.533-0.692,9.822-0.349c2.897,0.302,5.717,0.953,8.451,1.963c0.105,0.039,0.214,0.074,0.309,0.131
		c0.244,0.147,0.334,0.409,0.242,0.662c-0.091,0.249-0.34,0.397-0.614,0.346c-0.14-0.027-0.276-0.083-0.411-0.133
		c-2.755-1.004-5.593-1.662-8.513-1.903c-8.933-0.738-17.013,1.566-24.1,7.056C15.93,22.134,11.586,29.417,9.841,38.246
		c-0.657,3.324-0.79,6.686-0.485,10.057c1.12,12.406,8.403,22.895,18.643,28.33c3.53,1.873,7.27,3.099,11.231,3.649
		c11.3,1.568,22.514-2.494,30.189-10.942c4.611-5.075,7.524-10.995,8.797-17.727C78.595,49.601,78.81,47.148,78.826,45.005z"/>
	<path d="M53.308,44.966c0,2.374,0.002,4.747-0.001,7.121c-0.001,1.094-0.118,2.174-0.365,3.242
		c-0.655,2.834-2.394,4.715-5.109,5.65c-2.516,0.867-5.084,0.871-7.603,0.005c-2.879-0.99-4.625-3.03-5.181-6.029
		c-0.172-0.925-0.275-1.877-0.281-2.817c-0.028-4.779-0.017-9.558-0.009-14.337c0.002-1.222,0.143-2.432,0.48-3.612
		c0.752-2.629,2.492-4.314,5.031-5.208c1.582-0.557,3.223-0.674,4.887-0.537c1.191,0.098,2.344,0.357,3.433,0.858
		c2.453,1.129,3.903,3.045,4.432,5.678c0.193,0.962,0.287,1.934,0.287,2.914C53.308,40.251,53.308,42.608,53.308,44.966z
		 M50.323,44.989c0-2.373,0.001-4.747,0-7.12c0-0.837-0.086-1.665-0.286-2.478c-0.505-2.052-1.712-3.453-3.799-3.988
		c-1.371-0.351-2.763-0.354-4.147-0.058c-2.098,0.449-3.405,1.741-3.989,3.79c-0.253,0.886-0.355,1.794-0.357,2.709
		c-0.008,4.747-0.017,9.493,0.009,14.24c0.004,0.811,0.103,1.637,0.279,2.429c0.503,2.268,1.891,3.699,4.198,4.161
		c1.126,0.225,2.264,0.225,3.397,0.036c2.202-0.368,3.654-1.607,4.304-3.753c0.281-0.927,0.389-1.882,0.391-2.848
		C50.326,49.735,50.323,47.362,50.323,44.989z"/>
	<path d="M62.531,13.847c0.005,0.363-0.35,0.647-0.687,0.554c-0.106-0.029-0.203-0.091-0.301-0.145
		c-0.657-0.362-1.312-0.726-1.968-1.087c-0.434-0.239-0.571-0.513-0.405-0.83c0.172-0.33,0.472-0.395,0.904-0.163
		c0.689,0.369,1.368,0.756,2.052,1.135C62.345,13.433,62.512,13.593,62.531,13.847z"/>
	<path d="M64.332,14.834c0.083,0.036,0.211,0.067,0.311,0.138c0.376,0.268,0.751,0.539,1.11,0.829
		c0.293,0.237,0.332,0.541,0.137,0.796c-0.194,0.254-0.499,0.296-0.803,0.081c-0.39-0.276-0.771-0.565-1.143-0.864
		c-0.187-0.151-0.255-0.36-0.163-0.601C63.87,14.979,64.051,14.872,64.332,14.834z"/>
</g>
</svg>
